# xmcd CD database file
#
# Track frame offsets:
#	150
#	24580
#	54567
#	69203
#	109375
#	123276
#	143743
#	158024
#	176631
#	199922
#
# Disc length: 3065 seconds
#
# Revision: 2
# Processed by: cddbd v1.5.1PL0 Copyright (c) Steve Scherf et al.
# Submitted via: CDex 1.60beta1
#
DISCID=870bf70a
DTITLE=ALcot - Clover Heart's append disc TOYつめちゃいましたっ ドラマCD 「御子柴莉織はご機嫌ナナメ」
DYEAR=2004
DGENRE=Game
TTITLE0=壁から漏れた 物語(ストーリー)
TTITLE1=問い詰めちゃいました
TTITLE2=いやらし探偵
TTITLE3=過激に初体験？
TTITLE4=silent night
TTITLE5=残り香
TTITLE6=tear of pain
TTITLE7=小さな願いの調味料
TTITLE8=本当のキモチ
TTITLE9=想い、気づく時
EXTD=YEAR: 2004
EXTT0=
EXTT1=
EXTT2=
EXTT3=
EXTT4=
EXTT5=
EXTT6=
EXTT7=
EXTT8=
EXTT9=
PLAYORDER=
